<svg viewBox="0 0 35 35" fill="none" xmlns="http://www.w3.org/2000/svg">
<path d="M24.0623 9.84376C23.9598 9.94544 23.8784 10.0664 23.8229 10.1997C23.7674 10.333 23.7388 10.4759 23.7388 10.6203C23.7388 10.7647 23.7674 10.9077 23.8229 11.041C23.8784 11.1742 23.9598 11.2952 24.0623 11.3969L29.0936 16.4281H3.34668C3.0566 16.4281 2.7784 16.5434 2.57328 16.7485C2.36816 16.9536 2.25293 17.2318 2.25293 17.5219C2.25293 17.812 2.36816 18.0902 2.57328 18.2953C2.7784 18.5004 3.0566 18.6156 3.34668 18.6156H29.0717L24.0623 23.6141C23.8586 23.819 23.7443 24.0962 23.7443 24.3852C23.7443 24.6741 23.8586 24.9513 24.0623 25.1563C24.2672 25.36 24.5444 25.4743 24.8334 25.4743C25.1224 25.4743 25.3996 25.36 25.6045 25.1563L32.5607 18.2C32.6544 18.1102 32.7289 18.0024 32.7798 17.883C32.8307 17.7636 32.8569 17.6352 32.8569 17.5055C32.8569 17.3757 32.8307 17.2473 32.7798 17.128C32.7289 17.0086 32.6544 16.9008 32.5607 16.8109L25.6154 9.84376C25.5138 9.74125 25.3928 9.65988 25.2595 9.60435C25.1262 9.54882 24.9833 9.52023 24.8389 9.52023C24.6945 9.52023 24.5515 9.54882 24.4182 9.60435C24.285 9.65988 24.164 9.74125 24.0623 9.84376Z" fill="#C09553"/>
</svg>
