<svg width="11" height="18" viewBox="0 0 11 18" fill="none" xmlns="http://www.w3.org/2000/svg">
<path d="M10.1531 8.61807L1.70517 0.598692C1.5416 0.465583 1.33119 0.396028 1.11599 0.403926C0.900799 0.411825 0.696665 0.496595 0.544385 0.641297C0.392105 0.785998 0.302895 0.979974 0.294583 1.18446C0.286271 1.38895 0.359469 1.58888 0.499549 1.74432L8.24631 9.10557L0.721862 16.2556C0.562608 16.4078 0.473219 16.6137 0.473219 16.8284C0.473219 17.043 0.562608 17.249 0.721862 17.4012C0.882067 17.5525 1.09878 17.6375 1.32467 17.6375C1.55057 17.6375 1.76728 17.5525 1.92748 17.4012L10.1531 9.59307C10.2888 9.46362 10.3651 9.28832 10.3651 9.10557C10.3651 8.92282 10.2888 8.74752 10.1531 8.61807Z" fill="white"/>
</svg>
