<svg width="180" height="179" viewBox="0 0 180 179" fill="none" xmlns="http://www.w3.org/2000/svg">
<mask id="path-1-outside-1_1151_2" maskUnits="userSpaceOnUse" x="0.62793" y="153.308" width="114" height="26" fill="black">
<rect fill="white" x="0.62793" y="153.308" width="114" height="26"/>
<path d="M10.447 177.825H95.2304C97.8983 177.826 100.516 177.1 102.803 175.726L110.487 171.108C111.358 170.586 112.078 169.847 112.579 168.963C113.079 168.08 113.342 167.082 113.342 166.067C113.342 165.051 113.079 164.053 112.579 163.17C112.078 162.286 111.358 161.547 110.487 161.025L102.803 156.407C100.516 155.033 97.8983 154.307 95.2304 154.308H10.447C8.10802 154.308 5.86486 155.237 4.21097 156.891C2.55708 158.545 1.62793 160.788 1.62793 163.127V169.006C1.62793 171.345 2.55708 173.588 4.21097 175.242C5.86486 176.896 8.10802 177.825 10.447 177.825ZM28.0851 171.946V160.187H86.8787V171.946H28.0851ZM99.7722 161.448L107.456 166.067L99.7722 170.685C98.4012 171.511 96.8309 171.947 95.2304 171.946H92.7581V160.187H95.2304C96.8309 160.186 98.4012 160.622 99.7722 161.448ZM7.50729 163.127C7.50729 162.347 7.81701 161.6 8.36831 161.048C8.9196 160.497 9.66732 160.187 10.447 160.187H22.2057V171.946H10.447C9.66732 171.946 8.9196 171.636 8.36831 171.085C7.81701 170.534 7.50729 169.786 7.50729 169.006V163.127Z"/>
</mask>
<path d="M10.447 177.825H95.2304C97.8983 177.826 100.516 177.1 102.803 175.726L110.487 171.108C111.358 170.586 112.078 169.847 112.579 168.963C113.079 168.08 113.342 167.082 113.342 166.067C113.342 165.051 113.079 164.053 112.579 163.17C112.078 162.286 111.358 161.547 110.487 161.025L102.803 156.407C100.516 155.033 97.8983 154.307 95.2304 154.308H10.447C8.10802 154.308 5.86486 155.237 4.21097 156.891C2.55708 158.545 1.62793 160.788 1.62793 163.127V169.006C1.62793 171.345 2.55708 173.588 4.21097 175.242C5.86486 176.896 8.10802 177.825 10.447 177.825ZM28.0851 171.946V160.187H86.8787V171.946H28.0851ZM99.7722 161.448L107.456 166.067L99.7722 170.685C98.4012 171.511 96.8309 171.947 95.2304 171.946H92.7581V160.187H95.2304C96.8309 160.186 98.4012 160.622 99.7722 161.448ZM7.50729 163.127C7.50729 162.347 7.81701 161.6 8.36831 161.048C8.9196 160.497 9.66732 160.187 10.447 160.187H22.2057V171.946H10.447C9.66732 171.946 8.9196 171.636 8.36831 171.085C7.81701 170.534 7.50729 169.786 7.50729 169.006V163.127Z" fill="#E2E2E2"/>
<path d="M95.2304 177.825L95.2306 176.825H95.2304V177.825ZM102.803 175.726L103.318 176.584L103.318 176.583L102.803 175.726ZM110.487 171.108L109.973 170.251L109.972 170.251L110.487 171.108ZM110.487 161.025L109.972 161.882L109.973 161.883L110.487 161.025ZM102.803 156.407L103.318 155.55L103.318 155.55L102.803 156.407ZM95.2304 154.308L95.2304 155.308L95.2306 155.308L95.2304 154.308ZM1.62793 163.127H0.62793H1.62793ZM1.62793 169.006H0.62793H1.62793ZM28.0851 171.946H27.0851V172.946H28.0851V171.946ZM28.0851 160.187V159.187H27.0851V160.187H28.0851ZM86.8787 160.187H87.8787V159.187H86.8787V160.187ZM86.8787 171.946V172.946H87.8787V171.946H86.8787ZM99.7722 161.448L99.2561 162.305L99.257 162.305L99.7722 161.448ZM107.456 166.067L107.972 166.924L109.398 166.067L107.972 165.209L107.456 166.067ZM99.7722 170.685L99.257 169.828L99.2561 169.828L99.7722 170.685ZM95.2304 171.946L95.2309 170.946H95.2304V171.946ZM92.7581 171.946H91.7581V172.946H92.7581V171.946ZM92.7581 160.187V159.187H91.7581V160.187H92.7581ZM95.2304 160.187L95.2304 161.187L95.2309 161.187L95.2304 160.187ZM22.2057 160.187H23.2057V159.187H22.2057V160.187ZM22.2057 171.946V172.946H23.2057V171.946H22.2057ZM7.50729 169.006H6.50729H7.50729ZM10.447 178.825H95.2304V176.825H10.447V178.825ZM95.2301 178.825C98.0796 178.826 100.875 178.051 103.318 176.584L102.288 174.869C100.157 176.15 97.717 176.826 95.2306 176.825L95.2301 178.825ZM103.318 176.583L111.002 171.965L109.972 170.251L102.288 174.869L103.318 176.583ZM111.002 171.966C112.02 171.354 112.864 170.49 113.449 169.456L111.708 168.471C111.293 169.204 110.695 169.817 109.973 170.251L111.002 171.966ZM113.449 169.456C114.034 168.422 114.342 167.255 114.342 166.067H112.342C112.342 166.909 112.124 167.737 111.708 168.471L113.449 169.456ZM114.342 166.067C114.342 164.879 114.034 163.711 113.449 162.677L111.708 163.663C112.124 164.396 112.342 165.224 112.342 166.067H114.342ZM113.449 162.677C112.864 161.643 112.02 160.779 111.002 160.168L109.973 161.883C110.695 162.316 111.293 162.929 111.708 163.663L113.449 162.677ZM111.002 160.168L103.318 155.55L102.288 157.264L109.972 161.882L111.002 160.168ZM103.318 155.55C100.875 154.082 98.0796 153.307 95.2301 153.308L95.2306 155.308C97.717 155.307 100.157 155.984 102.288 157.264L103.318 155.55ZM95.2304 153.308H10.447V155.308H95.2304V153.308ZM10.447 153.308C7.8428 153.308 5.34529 154.342 3.50386 156.184L4.91808 157.598C6.38443 156.132 8.37324 155.308 10.447 155.308V153.308ZM3.50386 156.184C1.66243 158.025 0.62793 160.523 0.62793 163.127H2.62793C2.62793 161.053 3.45172 159.064 4.91808 157.598L3.50386 156.184ZM0.62793 163.127V169.006H2.62793V163.127H0.62793ZM0.62793 169.006C0.62793 171.61 1.66243 174.108 3.50386 175.949L4.91808 174.535C3.45172 173.069 2.62793 171.08 2.62793 169.006H0.62793ZM3.50386 175.949C5.34529 177.791 7.8428 178.825 10.447 178.825V176.825C8.37324 176.825 6.38443 176.002 4.91808 174.535L3.50386 175.949ZM29.0851 171.946V160.187H27.0851V171.946H29.0851ZM28.0851 161.187H86.8787V159.187H28.0851V161.187ZM85.8787 160.187V171.946H87.8787V160.187H85.8787ZM86.8787 170.946H28.0851V172.946H86.8787V170.946ZM99.257 162.305L106.941 166.924L107.972 165.209L100.287 160.591L99.257 162.305ZM106.941 165.209L99.257 169.828L100.287 171.542L107.972 166.924L106.941 165.209ZM99.2561 169.828C98.0411 170.56 96.6493 170.947 95.2309 170.946L95.2298 172.946C97.0124 172.947 98.7613 172.461 100.288 171.541L99.2561 169.828ZM95.2304 170.946H92.7581V172.946H95.2304V170.946ZM93.7581 171.946V160.187H91.7581V171.946H93.7581ZM92.7581 161.187H95.2304V159.187H92.7581V161.187ZM95.2309 161.187C96.6493 161.186 98.0411 161.573 99.2561 162.305L100.288 160.592C98.7613 159.672 97.0124 159.186 95.2298 159.187L95.2309 161.187ZM8.50729 163.127C8.50729 162.612 8.71165 162.119 9.07541 161.755L7.6612 160.341C6.92237 161.08 6.50729 162.082 6.50729 163.127H8.50729ZM9.07541 161.755C9.43917 161.392 9.93254 161.187 10.447 161.187V159.187C9.40211 159.187 8.40004 159.602 7.6612 160.341L9.07541 161.755ZM10.447 161.187H22.2057V159.187H10.447V161.187ZM21.2057 160.187V171.946H23.2057V160.187H21.2057ZM22.2057 170.946H10.447V172.946H22.2057V170.946ZM10.447 170.946C9.93254 170.946 9.43917 170.742 9.07541 170.378L7.6612 171.792C8.40004 172.531 9.40211 172.946 10.447 172.946V170.946ZM9.07541 170.378C8.71165 170.014 8.50729 169.521 8.50729 169.006H6.50729C6.50729 170.051 6.92237 171.053 7.6612 171.792L9.07541 170.378ZM8.50729 169.006V163.127H6.50729V169.006H8.50729Z" fill="#E2E2E2" mask="url(#path-1-outside-1_1151_2)"/>
<path d="M142.732 47.9792C140.308 47.9792 137.938 48.6982 135.922 50.0452C133.906 51.3922 132.335 53.3068 131.407 55.5468C130.479 57.7868 130.236 60.2516 130.709 62.6295C131.182 65.0075 132.35 67.1918 134.064 68.9062C135.779 70.6206 137.963 71.7881 140.341 72.2612C142.719 72.7342 145.184 72.4914 147.424 71.5636C149.664 70.6357 151.578 69.0645 152.925 67.0486C154.272 65.0326 154.991 62.6625 154.991 60.238C154.991 56.9868 153.7 53.8687 151.401 51.5697C149.102 49.2708 145.984 47.9792 142.732 47.9792ZM142.732 65.6173C141.668 65.6173 140.628 65.3018 139.744 64.7108C138.859 64.1197 138.17 63.2795 137.762 62.2966C137.355 61.3136 137.249 60.232 137.456 59.1885C137.664 58.145 138.176 57.1865 138.929 56.4342C139.681 55.6819 140.639 55.1695 141.683 54.962C142.726 54.7544 143.808 54.8609 144.791 55.2681C145.774 55.6752 146.614 56.3647 147.205 57.2494C147.796 58.134 148.112 59.174 148.112 60.238C148.112 61.6647 147.545 63.0329 146.536 64.0418C145.527 65.0506 144.159 65.6173 142.732 65.6173Z" fill="#E2E2E2" stroke="#E2E2E2"/>
<path d="M169.689 0.957746V0.944336H169.189H128.034C125.562 0.944336 123.192 1.92616 121.444 3.67382C119.697 5.42148 118.715 7.79182 118.715 10.2634V74.9364C118.715 77.408 119.697 79.7783 121.444 81.526C123.192 83.2736 125.562 84.2554 128.034 84.2554H169.189C171.661 84.2554 174.031 83.2736 175.779 81.526C177.527 79.7783 178.508 77.408 178.508 74.9364V10.2634C178.508 7.79182 177.527 5.42148 175.779 3.67382C174.15 2.04438 171.979 1.08067 169.689 0.957746ZM171.629 74.9364C171.629 75.5834 171.372 76.204 170.915 76.6615C170.457 77.119 169.836 77.3761 169.189 77.3761H128.034C127.387 77.3761 126.766 77.119 126.309 76.6615C125.851 76.204 125.594 75.5834 125.594 74.9364V10.2634C125.594 9.61634 125.851 8.9958 126.309 8.53827C126.766 8.08074 127.387 7.8237 128.034 7.8237H169.189C169.836 7.8237 170.457 8.08074 170.915 8.53827C171.372 8.9958 171.629 9.61634 171.629 10.2634V74.9364Z" fill="#E2E2E2" stroke="#E2E2E2"/>
<path d="M154.859 128.87L130.023 101.894H169.189C169.836 101.894 170.457 102.151 170.915 102.608C171.372 103.066 171.629 103.686 171.629 104.333V169.006C171.629 169.653 171.372 170.274 170.915 170.731C170.457 171.189 169.836 171.446 169.189 171.446H130.023L154.859 144.472L154.86 144.471C156.809 142.341 157.889 139.558 157.889 136.671C157.889 133.784 156.809 131.002 154.86 128.871L154.859 128.87ZM169.189 95.0142H128.034C125.562 95.0142 123.192 95.996 121.444 97.7437C119.697 99.4913 118.715 101.862 118.715 104.333V169.006C118.715 171.478 119.697 173.848 121.444 175.596C123.192 177.343 125.562 178.325 128.034 178.325H169.189C171.661 178.325 174.031 177.343 175.779 175.596C177.527 173.848 178.508 171.478 178.508 169.006V104.333C178.508 101.862 177.527 99.4913 175.779 97.7437C174.031 95.996 171.661 95.0142 169.189 95.0142ZM149.815 139.81L125.594 166.1V107.24L149.815 133.532C149.816 133.533 149.816 133.533 149.816 133.533C150.6 134.39 151.034 135.51 151.034 136.671C151.034 137.833 150.6 138.952 149.816 139.809C149.816 139.81 149.816 139.81 149.815 139.81Z" fill="#E2E2E2" stroke="#E2E2E2"/>
<mask id="path-6-outside-2_1151_2" maskUnits="userSpaceOnUse" x="0.62793" y="0.444336" width="114" height="147" fill="black">
<rect fill="white" x="0.62793" y="0.444336" width="114" height="147"/>
<path d="M10.447 145.489H88.6131C89.3831 145.492 90.146 145.342 90.8576 145.048C91.5692 144.754 92.2152 144.321 92.7581 143.775L111.622 124.911C112.168 124.368 112.601 123.722 112.895 123.01C113.189 122.299 113.339 121.536 113.336 120.766V10.2634C113.336 7.92443 112.407 5.68127 110.753 4.02737C109.099 2.37348 106.856 1.44434 104.517 1.44434H10.447C8.10802 1.44434 5.86486 2.37348 4.21097 4.02737C2.55708 5.68127 1.62793 7.92443 1.62793 10.2634V136.67C1.62793 139.009 2.55708 141.252 4.21097 142.906C5.86486 144.56 8.10802 145.489 10.447 145.489ZM7.50729 136.67V54.3586H107.456V119.032H95.6978C93.3588 119.032 91.1156 119.961 89.4618 121.615C87.8079 123.269 86.8787 125.512 86.8787 127.851V139.609H10.447C9.66732 139.609 8.9196 139.3 8.36831 138.748C7.81701 138.197 7.50729 137.449 7.50729 136.67ZM103.303 124.911L92.7581 135.462V127.851C92.7581 127.071 93.0678 126.323 93.6191 125.772C94.1704 125.221 94.9181 124.911 95.6978 124.911H103.303ZM10.447 7.3237H104.517C105.296 7.3237 106.044 7.63342 106.595 8.18471C107.147 8.73601 107.456 9.48373 107.456 10.2634V48.4792H7.50729V10.2634C7.50729 9.48373 7.81701 8.73601 8.36831 8.18471C8.9196 7.63342 9.66732 7.3237 10.447 7.3237Z"/>
<path d="M28.0851 42.6C30.9922 42.6 33.834 41.7379 36.2511 40.1228C38.6683 38.5077 40.5522 36.2122 41.6647 33.5264C42.7772 30.8406 43.0683 27.8852 42.5011 25.034C41.934 22.1828 40.5341 19.5638 38.4785 17.5082C36.4229 15.4526 33.8039 14.0527 30.9526 13.4856C28.1014 12.9184 25.1461 13.2095 22.4603 14.322C19.7745 15.4345 17.4789 17.3184 15.8638 19.7355C14.2488 22.1527 13.3867 24.9945 13.3867 27.9015C13.3914 31.7984 14.9415 35.5343 17.6969 38.2897C20.4524 41.0452 24.1883 42.5953 28.0851 42.6ZM28.0851 19.0825C29.8294 19.0825 31.5344 19.5997 32.9847 20.5688C34.435 21.5378 35.5654 22.9152 36.2329 24.5266C36.9004 26.1381 37.075 27.9113 36.7347 29.6221C36.3944 31.3328 35.5545 32.9042 34.3211 34.1376C33.0878 35.3709 31.5164 36.2109 29.8056 36.5511C28.0949 36.8914 26.3217 36.7168 24.7102 36.0493C23.0988 35.3818 21.7214 34.2514 20.7524 32.8011C19.7833 31.3509 19.2661 29.6458 19.2661 27.9015C19.2661 25.5626 20.1952 23.3194 21.8491 21.6655C23.503 20.0116 25.7462 19.0825 28.0851 19.0825Z"/>
<path d="M51.6028 19.0825H95.698C96.4777 19.0825 97.2254 18.7728 97.7767 18.2215C98.328 17.6702 98.6377 16.9225 98.6377 16.1428C98.6377 15.3632 98.328 14.6154 97.7767 14.0641C97.2254 13.5128 96.4777 13.2031 95.698 13.2031H51.6028C50.8231 13.2031 50.0754 13.5128 49.5241 14.0641C48.9728 14.6154 48.6631 15.3632 48.6631 16.1428C48.6631 16.9225 48.9728 17.6702 49.5241 18.2215C50.0754 18.7728 50.8231 19.0825 51.6028 19.0825Z"/>
<path d="M51.6028 30.841H66.3012C67.0808 30.841 67.8286 30.5313 68.3799 29.98C68.9311 29.4287 69.2409 28.681 69.2409 27.9014C69.2409 27.1217 68.9311 26.374 68.3799 25.8227C67.8286 25.2714 67.0808 24.9617 66.3012 24.9617H51.6028C50.8231 24.9617 50.0754 25.2714 49.5241 25.8227C48.9728 26.374 48.6631 27.1217 48.6631 27.9014C48.6631 28.681 48.9728 29.4287 49.5241 29.98C50.0754 30.5313 50.8231 30.841 51.6028 30.841Z"/>
<path d="M51.6028 42.5998H75.1202C75.8999 42.5998 76.6476 42.2901 77.1989 41.7388C77.7502 41.1875 78.0599 40.4398 78.0599 39.6601C78.0599 38.8805 77.7502 38.1328 77.1989 37.5815C76.6476 37.0302 75.8999 36.7205 75.1202 36.7205H51.6028C50.8231 36.7205 50.0754 37.0302 49.5241 37.5815C48.9728 38.1328 48.6631 38.8805 48.6631 39.6601C48.6631 40.4398 48.9728 41.1875 49.5241 41.7388C50.0754 42.2901 50.8231 42.5998 51.6028 42.5998Z"/>
<path d="M92.7584 66.1174C92.7584 65.3378 92.4487 64.59 91.8974 64.0387C91.3461 63.4874 90.5984 63.1777 89.8188 63.1777H25.1457C24.3661 63.1777 23.6184 63.4874 23.0671 64.0387C22.5158 64.59 22.2061 65.3378 22.2061 66.1174C22.2061 66.8971 22.5158 67.6448 23.0671 68.1961C23.6184 68.7474 24.3661 69.0571 25.1457 69.0571H89.8188C90.5984 69.0571 91.3461 68.7474 91.8974 68.1961C92.4487 67.6448 92.7584 66.8971 92.7584 66.1174Z"/>
<path d="M83.9389 77.876H31.0246C30.245 77.876 29.4973 78.1857 28.946 78.737C28.3947 79.2883 28.085 80.036 28.085 80.8157C28.085 81.5953 28.3947 82.343 28.946 82.8943C29.4973 83.4456 30.245 83.7553 31.0246 83.7553H83.9389C84.7186 83.7553 85.4663 83.4456 86.0176 82.8943C86.5689 82.343 86.8786 81.5953 86.8786 80.8157C86.8786 80.036 86.5689 79.2883 86.0176 78.737C85.4663 78.1857 84.7186 77.876 83.9389 77.876Z"/>
<path d="M83.9389 89.6348H31.0246C30.245 89.6348 29.4973 89.9445 28.946 90.4958C28.3947 91.0471 28.085 91.7948 28.085 92.5744C28.085 93.3541 28.3947 94.1018 28.946 94.6531C29.4973 95.2044 30.245 95.5141 31.0246 95.5141H83.9389C84.7186 95.5141 85.4663 95.2044 86.0176 94.6531C86.5689 94.1018 86.8786 93.3541 86.8786 92.5744C86.8786 91.7948 86.5689 91.0471 86.0176 90.4958C85.4663 89.9445 84.7186 89.6348 83.9389 89.6348Z"/>
<path d="M83.9389 101.394H31.0246C30.245 101.394 29.4973 101.703 28.946 102.255C28.3947 102.806 28.085 103.554 28.085 104.333C28.085 105.113 28.3947 105.861 28.946 106.412C29.4973 106.963 30.245 107.273 31.0246 107.273H83.9389C84.7186 107.273 85.4663 106.963 86.0176 106.412C86.5689 105.861 86.8786 105.113 86.8786 104.333C86.8786 103.554 86.5689 102.806 86.0176 102.255C85.4663 101.703 84.7186 101.394 83.9389 101.394Z"/>
<path d="M86.8786 116.092C86.8786 115.312 86.5689 114.565 86.0176 114.013C85.4663 113.462 84.7186 113.152 83.9389 113.152H31.0246C30.245 113.152 29.4973 113.462 28.946 114.013C28.3947 114.565 28.085 115.312 28.085 116.092C28.085 116.872 28.3947 117.619 28.946 118.171C29.4973 118.722 30.245 119.032 31.0246 119.032H83.9389C84.7186 119.032 85.4663 118.722 86.0176 118.171C86.5689 117.619 86.8786 116.872 86.8786 116.092Z"/>
</mask>
<path d="M10.447 145.489H88.6131C89.3831 145.492 90.146 145.342 90.8576 145.048C91.5692 144.754 92.2152 144.321 92.7581 143.775L111.622 124.911C112.168 124.368 112.601 123.722 112.895 123.01C113.189 122.299 113.339 121.536 113.336 120.766V10.2634C113.336 7.92443 112.407 5.68127 110.753 4.02737C109.099 2.37348 106.856 1.44434 104.517 1.44434H10.447C8.10802 1.44434 5.86486 2.37348 4.21097 4.02737C2.55708 5.68127 1.62793 7.92443 1.62793 10.2634V136.67C1.62793 139.009 2.55708 141.252 4.21097 142.906C5.86486 144.56 8.10802 145.489 10.447 145.489ZM7.50729 136.67V54.3586H107.456V119.032H95.6978C93.3588 119.032 91.1156 119.961 89.4618 121.615C87.8079 123.269 86.8787 125.512 86.8787 127.851V139.609H10.447C9.66732 139.609 8.9196 139.3 8.36831 138.748C7.81701 138.197 7.50729 137.449 7.50729 136.67ZM103.303 124.911L92.7581 135.462V127.851C92.7581 127.071 93.0678 126.323 93.6191 125.772C94.1704 125.221 94.9181 124.911 95.6978 124.911H103.303ZM10.447 7.3237H104.517C105.296 7.3237 106.044 7.63342 106.595 8.18471C107.147 8.73601 107.456 9.48373 107.456 10.2634V48.4792H7.50729V10.2634C7.50729 9.48373 7.81701 8.73601 8.36831 8.18471C8.9196 7.63342 9.66732 7.3237 10.447 7.3237Z" fill="#E2E2E2"/>
<path d="M28.0851 42.6C30.9922 42.6 33.834 41.7379 36.2511 40.1228C38.6683 38.5077 40.5522 36.2122 41.6647 33.5264C42.7772 30.8406 43.0683 27.8852 42.5011 25.034C41.934 22.1828 40.5341 19.5638 38.4785 17.5082C36.4229 15.4526 33.8039 14.0527 30.9526 13.4856C28.1014 12.9184 25.1461 13.2095 22.4603 14.322C19.7745 15.4345 17.4789 17.3184 15.8638 19.7355C14.2488 22.1527 13.3867 24.9945 13.3867 27.9015C13.3914 31.7984 14.9415 35.5343 17.6969 38.2897C20.4524 41.0452 24.1883 42.5953 28.0851 42.6ZM28.0851 19.0825C29.8294 19.0825 31.5344 19.5997 32.9847 20.5688C34.435 21.5378 35.5654 22.9152 36.2329 24.5266C36.9004 26.1381 37.075 27.9113 36.7347 29.6221C36.3944 31.3328 35.5545 32.9042 34.3211 34.1376C33.0878 35.3709 31.5164 36.2109 29.8056 36.5511C28.0949 36.8914 26.3217 36.7168 24.7102 36.0493C23.0988 35.3818 21.7214 34.2514 20.7524 32.8011C19.7833 31.3509 19.2661 29.6458 19.2661 27.9015C19.2661 25.5626 20.1952 23.3194 21.8491 21.6655C23.503 20.0116 25.7462 19.0825 28.0851 19.0825Z" fill="#E2E2E2"/>
<path d="M51.6028 19.0825H95.698C96.4777 19.0825 97.2254 18.7728 97.7767 18.2215C98.328 17.6702 98.6377 16.9225 98.6377 16.1428C98.6377 15.3632 98.328 14.6154 97.7767 14.0641C97.2254 13.5128 96.4777 13.2031 95.698 13.2031H51.6028C50.8231 13.2031 50.0754 13.5128 49.5241 14.0641C48.9728 14.6154 48.6631 15.3632 48.6631 16.1428C48.6631 16.9225 48.9728 17.6702 49.5241 18.2215C50.0754 18.7728 50.8231 19.0825 51.6028 19.0825Z" fill="#E2E2E2"/>
<path d="M51.6028 30.841H66.3012C67.0808 30.841 67.8286 30.5313 68.3799 29.98C68.9311 29.4287 69.2409 28.681 69.2409 27.9014C69.2409 27.1217 68.9311 26.374 68.3799 25.8227C67.8286 25.2714 67.0808 24.9617 66.3012 24.9617H51.6028C50.8231 24.9617 50.0754 25.2714 49.5241 25.8227C48.9728 26.374 48.6631 27.1217 48.6631 27.9014C48.6631 28.681 48.9728 29.4287 49.5241 29.98C50.0754 30.5313 50.8231 30.841 51.6028 30.841Z" fill="#E2E2E2"/>
<path d="M51.6028 42.5998H75.1202C75.8999 42.5998 76.6476 42.2901 77.1989 41.7388C77.7502 41.1875 78.0599 40.4398 78.0599 39.6601C78.0599 38.8805 77.7502 38.1328 77.1989 37.5815C76.6476 37.0302 75.8999 36.7205 75.1202 36.7205H51.6028C50.8231 36.7205 50.0754 37.0302 49.5241 37.5815C48.9728 38.1328 48.6631 38.8805 48.6631 39.6601C48.6631 40.4398 48.9728 41.1875 49.5241 41.7388C50.0754 42.2901 50.8231 42.5998 51.6028 42.5998Z" fill="#E2E2E2"/>
<path d="M92.7584 66.1174C92.7584 65.3378 92.4487 64.59 91.8974 64.0387C91.3461 63.4874 90.5984 63.1777 89.8188 63.1777H25.1457C24.3661 63.1777 23.6184 63.4874 23.0671 64.0387C22.5158 64.59 22.2061 65.3378 22.2061 66.1174C22.2061 66.8971 22.5158 67.6448 23.0671 68.1961C23.6184 68.7474 24.3661 69.0571 25.1457 69.0571H89.8188C90.5984 69.0571 91.3461 68.7474 91.8974 68.1961C92.4487 67.6448 92.7584 66.8971 92.7584 66.1174Z" fill="#E2E2E2"/>
<path d="M83.9389 77.876H31.0246C30.245 77.876 29.4973 78.1857 28.946 78.737C28.3947 79.2883 28.085 80.036 28.085 80.8157C28.085 81.5953 28.3947 82.343 28.946 82.8943C29.4973 83.4456 30.245 83.7553 31.0246 83.7553H83.9389C84.7186 83.7553 85.4663 83.4456 86.0176 82.8943C86.5689 82.343 86.8786 81.5953 86.8786 80.8157C86.8786 80.036 86.5689 79.2883 86.0176 78.737C85.4663 78.1857 84.7186 77.876 83.9389 77.876Z" fill="#E2E2E2"/>
<path d="M83.9389 89.6348H31.0246C30.245 89.6348 29.4973 89.9445 28.946 90.4958C28.3947 91.0471 28.085 91.7948 28.085 92.5744C28.085 93.3541 28.3947 94.1018 28.946 94.6531C29.4973 95.2044 30.245 95.5141 31.0246 95.5141H83.9389C84.7186 95.5141 85.4663 95.2044 86.0176 94.6531C86.5689 94.1018 86.8786 93.3541 86.8786 92.5744C86.8786 91.7948 86.5689 91.0471 86.0176 90.4958C85.4663 89.9445 84.7186 89.6348 83.9389 89.6348Z" fill="#E2E2E2"/>
<path d="M83.9389 101.394H31.0246C30.245 101.394 29.4973 101.703 28.946 102.255C28.3947 102.806 28.085 103.554 28.085 104.333C28.085 105.113 28.3947 105.861 28.946 106.412C29.4973 106.963 30.245 107.273 31.0246 107.273H83.9389C84.7186 107.273 85.4663 106.963 86.0176 106.412C86.5689 105.861 86.8786 105.113 86.8786 104.333C86.8786 103.554 86.5689 102.806 86.0176 102.255C85.4663 101.703 84.7186 101.394 83.9389 101.394Z" fill="#E2E2E2"/>
<path d="M86.8786 116.092C86.8786 115.312 86.5689 114.565 86.0176 114.013C85.4663 113.462 84.7186 113.152 83.9389 113.152H31.0246C30.245 113.152 29.4973 113.462 28.946 114.013C28.3947 114.565 28.085 115.312 28.085 116.092C28.085 116.872 28.3947 117.619 28.946 118.171C29.4973 118.722 30.245 119.032 31.0246 119.032H83.9389C84.7186 119.032 85.4663 118.722 86.0176 118.171C86.5689 117.619 86.8786 116.872 86.8786 116.092Z" fill="#E2E2E2"/>
<path d="M88.6131 145.489L88.6172 144.489H88.6131V145.489ZM92.7581 143.775L92.051 143.068L92.049 143.07L92.7581 143.775ZM111.622 124.911L110.917 124.202L110.915 124.204L111.622 124.911ZM113.336 120.766H112.336L112.336 120.77L113.336 120.766ZM10.447 1.44434L10.447 0.444336L10.447 1.44434ZM1.62793 10.2634H0.62793H1.62793ZM1.62793 136.67H0.62793H1.62793ZM7.50729 136.67H6.50729H7.50729ZM7.50729 54.3586V53.3586H6.50729V54.3586H7.50729ZM107.456 54.3586H108.456V53.3586H107.456V54.3586ZM107.456 119.032V120.032H108.456V119.032H107.456ZM86.8787 127.851H85.8787H86.8787ZM86.8787 139.609V140.609H87.8787V139.609H86.8787ZM103.303 124.911L104.01 125.618L105.716 123.911H103.303V124.911ZM92.7581 135.462H91.7581V137.877L93.4654 136.168L92.7581 135.462ZM10.447 7.3237L10.447 6.3237L10.447 7.3237ZM104.517 7.3237V6.3237V7.3237ZM107.456 48.4792V49.4792H108.456V48.4792H107.456ZM7.50729 48.4792H6.50729V49.4792H7.50729V48.4792ZM28.0851 42.6L28.0839 43.6H28.0851L28.0851 42.6ZM13.3867 27.9015L12.3867 27.9015L12.3867 27.9027L13.3867 27.9015ZM95.698 13.2031V12.2031V13.2031ZM66.3012 24.9617V25.9617V24.9617ZM51.6028 24.9617V25.9617V24.9617ZM10.447 146.489H88.6131V144.489H10.447V146.489ZM88.609 146.489C89.5115 146.492 90.4057 146.317 91.2397 145.972L90.4755 144.124C89.8864 144.367 89.2547 144.491 88.6172 144.489L88.609 146.489ZM91.2397 145.972C92.0737 145.627 92.8309 145.12 93.4672 144.48L92.049 143.07C91.5995 143.522 91.0646 143.88 90.4755 144.124L91.2397 145.972ZM93.4652 144.482L112.329 125.618L110.915 124.204L92.051 143.068L93.4652 144.482ZM112.327 125.62C112.967 124.984 113.474 124.227 113.819 123.393L111.971 122.628C111.727 123.218 111.369 123.752 110.917 124.202L112.327 125.62ZM113.819 123.393C114.164 122.559 114.34 121.664 114.336 120.762L112.336 120.77C112.338 121.408 112.214 122.039 111.971 122.628L113.819 123.393ZM114.336 120.766V10.2634H112.336V120.766H114.336ZM114.336 10.2634C114.336 7.65921 113.301 5.1617 111.46 3.32027L110.046 4.73448C111.512 6.20084 112.336 8.18964 112.336 10.2634H114.336ZM111.46 3.32027C109.618 1.47884 107.121 0.444336 104.517 0.444336V2.44434C106.591 2.44434 108.579 3.26813 110.046 4.73448L111.46 3.32027ZM104.517 0.444336H10.447V2.44434H104.517V0.444336ZM10.447 0.444336C7.8428 0.444336 5.34529 1.47884 3.50386 3.32027L4.91808 4.73448C6.38443 3.26813 8.37324 2.44434 10.447 2.44434L10.447 0.444336ZM3.50386 3.32027C1.66243 5.1617 0.62793 7.65921 0.62793 10.2634L2.62793 10.2634C2.62793 8.18964 3.45172 6.20084 4.91808 4.73448L3.50386 3.32027ZM0.62793 10.2634V136.67H2.62793V10.2634H0.62793ZM0.62793 136.67C0.62793 139.274 1.66243 141.771 3.50386 143.613L4.91808 142.199C3.45172 140.732 2.62793 138.743 2.62793 136.67H0.62793ZM3.50386 143.613C5.34529 145.454 7.8428 146.489 10.447 146.489V144.489C8.37324 144.489 6.38443 143.665 4.91808 142.199L3.50386 143.613ZM8.50729 136.67V54.3586H6.50729V136.67H8.50729ZM7.50729 55.3586H107.456V53.3586H7.50729V55.3586ZM106.456 54.3586V119.032H108.456V54.3586H106.456ZM107.456 118.032H95.6978V120.032H107.456V118.032ZM95.6978 118.032C93.0936 118.032 90.5961 119.066 88.7546 120.908L90.1689 122.322C91.6352 120.855 93.624 120.032 95.6978 120.032V118.032ZM88.7546 120.908C86.9132 122.749 85.8787 125.246 85.8787 127.851H87.8787C87.8787 125.777 88.7025 123.788 90.1689 122.322L88.7546 120.908ZM85.8787 127.851V139.609H87.8787V127.851H85.8787ZM86.8787 138.609H10.447V140.609H86.8787V138.609ZM10.447 138.609C9.93254 138.609 9.43917 138.405 9.07541 138.041L7.6612 139.455C8.40004 140.194 9.40211 140.609 10.447 140.609V138.609ZM9.07541 138.041C8.71165 137.678 8.50729 137.184 8.50729 136.67H6.50729C6.50729 137.715 6.92237 138.717 7.6612 139.455L9.07541 138.041ZM102.595 124.204L92.0508 134.755L93.4654 136.168L104.01 125.618L102.595 124.204ZM93.7581 135.462V127.851H91.7581V135.462H93.7581ZM93.7581 127.851C93.7581 127.336 93.9624 126.843 94.3262 126.479L92.912 125.065C92.1731 125.804 91.7581 126.806 91.7581 127.851H93.7581ZM94.3262 126.479C94.69 126.115 95.1833 125.911 95.6978 125.911V123.911C94.6529 123.911 93.6508 124.326 92.912 125.065L94.3262 126.479ZM95.6978 125.911H103.303V123.911H95.6978V125.911ZM10.447 8.3237H104.517V6.3237H10.447V8.3237ZM104.517 8.3237C105.031 8.3237 105.525 8.52806 105.888 8.89182L107.303 7.47761C106.564 6.73877 105.562 6.3237 104.517 6.3237V8.3237ZM105.888 8.89182C106.252 9.25558 106.456 9.74894 106.456 10.2634H108.456C108.456 9.21852 108.041 8.21644 107.303 7.47761L105.888 8.89182ZM106.456 10.2634V48.4792H108.456V10.2634H106.456ZM107.456 47.4792H7.50729V49.4792H107.456V47.4792ZM8.50729 48.4792V10.2634H6.50729V48.4792H8.50729ZM8.50729 10.2634C8.50729 9.74895 8.71165 9.25558 9.07541 8.89182L7.6612 7.47761C6.92237 8.21644 6.50729 9.21851 6.50729 10.2634H8.50729ZM9.07541 8.89182C9.43917 8.52806 9.93254 8.3237 10.447 8.3237L10.447 6.3237C9.40211 6.3237 8.40003 6.73877 7.6612 7.47761L9.07541 8.89182ZM28.0851 43.6C31.19 43.6 34.2251 42.6793 36.8067 40.9543L35.6956 39.2914C33.4429 40.7966 30.7944 41.6 28.0851 41.6L28.0851 43.6ZM36.8067 40.9543C39.3883 39.2293 41.4004 36.7776 42.5886 33.9091L40.7408 33.1437C39.704 35.6468 37.9483 37.7862 35.6956 39.2914L36.8067 40.9543ZM42.5886 33.9091C43.7767 31.0406 44.0876 27.8841 43.4819 24.8389L41.5203 25.2291C42.0489 27.8863 41.7776 30.6406 40.7408 33.1437L42.5886 33.9091ZM43.4819 24.8389C42.8762 21.7937 41.381 18.9966 39.1856 16.8011L37.7714 18.2153C39.6871 20.1311 40.9918 22.5719 41.5203 25.2291L43.4819 24.8389ZM39.1856 16.8011C36.9901 14.6056 34.1929 13.1105 31.1477 12.5048L30.7576 14.4663C33.4148 14.9949 35.8556 16.2995 37.7714 18.2153L39.1856 16.8011ZM31.1477 12.5048C28.1025 11.899 24.9461 12.2099 22.0776 13.3981L22.843 15.2459C25.346 14.2091 28.1003 13.9378 30.7576 14.4663L31.1477 12.5048ZM22.0776 13.3981C19.2091 14.5863 16.7573 16.5984 15.0324 19.18L16.6953 20.2911C18.2005 18.0384 20.3399 16.2827 22.843 15.2459L22.0776 13.3981ZM15.0324 19.18C13.3074 21.7616 12.3867 24.7967 12.3867 27.9015H14.3867C14.3867 25.1923 15.1901 22.5438 16.6953 20.2911L15.0324 19.18ZM12.3867 27.9027C12.3917 32.0644 14.0471 36.0541 16.9898 38.9968L18.404 37.5826C15.8358 35.0144 14.3911 31.5324 14.3867 27.9003L12.3867 27.9027ZM16.9898 38.9968C19.9326 41.9396 23.9223 43.595 28.0839 43.6L28.0863 41.6C24.4543 41.5956 20.9723 40.1509 18.404 37.5826L16.9898 38.9968ZM28.0851 20.0825C29.6316 20.0825 31.1433 20.5411 32.4292 21.4002L33.5403 19.7373C31.9256 18.6584 30.0272 18.0825 28.0851 18.0825L28.0851 20.0825ZM32.4292 21.4002C33.715 22.2594 34.7172 23.4806 35.309 24.9093L37.1567 24.144C36.4136 22.3498 35.155 20.8162 33.5403 19.7373L32.4292 21.4002ZM35.309 24.9093C35.9008 26.3381 36.0556 27.9102 35.7539 29.427L37.7155 29.8171C38.0944 27.9124 37.8999 25.9382 37.1567 24.144L35.309 24.9093ZM35.7539 29.427C35.4522 30.9437 34.7075 32.3369 33.614 33.4304L35.0282 34.8447C36.4015 33.4714 37.3366 31.7219 37.7155 29.8171L35.7539 29.427ZM33.614 33.4304C32.5205 34.524 31.1273 35.2687 29.6105 35.5704L30.0007 37.5319C31.9054 37.1531 33.655 36.2179 35.0282 34.8447L33.614 33.4304ZM29.6105 35.5704C28.0938 35.8721 26.5217 35.7172 25.0929 35.1254L24.3275 36.9732C26.1217 37.7163 28.096 37.9108 30.0007 37.5319L29.6105 35.5704ZM25.0929 35.1254C23.6642 34.5336 22.443 33.5314 21.5838 32.2456L19.9209 33.3567C20.9998 34.9714 22.5333 36.23 24.3275 36.9732L25.0929 35.1254ZM21.5838 32.2456C20.7247 30.9597 20.2661 29.448 20.2661 27.9015H18.2661C18.2661 29.8436 18.842 31.742 19.9209 33.3567L21.5838 32.2456ZM20.2661 27.9015C20.2661 25.8278 21.0899 23.839 22.5562 22.3726L21.142 20.9584C19.3006 22.7999 18.2661 25.2974 18.2661 27.9015H20.2661ZM22.5562 22.3726C24.0226 20.9063 26.0114 20.0825 28.0851 20.0825V18.0825C25.481 18.0825 22.9834 19.117 21.142 20.9584L22.5562 22.3726ZM51.6028 20.0825H95.698V18.0825H51.6028V20.0825ZM95.698 20.0825C96.7429 20.0825 97.745 19.6674 98.4838 18.9286L97.0696 17.5144C96.7058 17.8781 96.2124 18.0825 95.698 18.0825V20.0825ZM98.4838 18.9286C99.2226 18.1898 99.6377 17.1877 99.6377 16.1428H97.6377C97.6377 16.6572 97.4333 17.1506 97.0696 17.5144L98.4838 18.9286ZM99.6377 16.1428C99.6377 15.0979 99.2226 14.0959 98.4838 13.357L97.0696 14.7712C97.4333 15.135 97.6377 15.6284 97.6377 16.1428H99.6377ZM98.4838 13.357C97.745 12.6182 96.7429 12.2031 95.698 12.2031V14.2031C96.2124 14.2031 96.7058 14.4075 97.0696 14.7712L98.4838 13.357ZM95.698 12.2031H51.6028V14.2031H95.698V12.2031ZM51.6028 12.2031C50.5579 12.2031 49.5558 12.6182 48.817 13.357L50.2312 14.7712C50.595 14.4075 51.0883 14.2031 51.6028 14.2031V12.2031ZM48.817 13.357C48.0782 14.0959 47.6631 15.0979 47.6631 16.1428H49.6631C49.6631 15.6284 49.8674 15.135 50.2312 14.7712L48.817 13.357ZM47.6631 16.1428C47.6631 17.1877 48.0782 18.1897 48.817 18.9286L50.2312 17.5144C49.8674 17.1506 49.6631 16.6572 49.6631 16.1428H47.6631ZM48.817 18.9286C49.5558 19.6674 50.5579 20.0825 51.6028 20.0825V18.0825C51.0883 18.0825 50.595 17.8781 50.2312 17.5144L48.817 18.9286ZM51.6028 31.841H66.3012V29.841H51.6028V31.841ZM66.3012 31.841C67.346 31.841 68.3481 31.426 69.087 30.6871L67.6727 29.2729C67.309 29.6367 66.8156 29.841 66.3012 29.841V31.841ZM69.087 30.6871C69.8258 29.9483 70.2409 28.9462 70.2409 27.9014H68.2409C68.2409 28.4158 68.0365 28.9092 67.6727 29.2729L69.087 30.6871ZM70.2409 27.9014C70.2409 26.8565 69.8258 25.8544 69.087 25.1156L67.6727 26.5298C68.0365 26.8935 68.2409 27.3869 68.2409 27.9014H70.2409ZM69.087 25.1156C68.3481 24.3767 67.346 23.9617 66.3012 23.9617V25.9617C66.8156 25.9617 67.309 26.166 67.6727 26.5298L69.087 25.1156ZM66.3012 23.9617H51.6028V25.9617H66.3012V23.9617ZM51.6028 23.9617C50.5579 23.9617 49.5558 24.3767 48.817 25.1156L50.2312 26.5298C50.595 26.166 51.0883 25.9617 51.6028 25.9617L51.6028 23.9617ZM48.817 25.1156C48.0782 25.8544 47.6631 26.8565 47.6631 27.9014H49.6631C49.6631 27.3869 49.8674 26.8936 50.2312 26.5298L48.817 25.1156ZM47.6631 27.9014C47.6631 28.9462 48.0782 29.9483 48.817 30.6871L50.2312 29.2729C49.8674 28.9092 49.6631 28.4158 49.6631 27.9014H47.6631ZM48.817 30.6871C49.5558 31.426 50.5579 31.841 51.6028 31.841V29.841C51.0883 29.841 50.595 29.6367 50.2312 29.2729L48.817 30.6871ZM51.6028 43.5998H75.1202V41.5998H51.6028V43.5998ZM75.1202 43.5998C76.1651 43.5998 77.1672 43.1848 77.906 42.4459L76.4918 41.0317C76.128 41.3955 75.6347 41.5998 75.1202 41.5998V43.5998ZM77.906 42.4459C78.6448 41.7071 79.0599 40.705 79.0599 39.6601H77.0599C77.0599 40.1746 76.8556 40.6679 76.4918 41.0317L77.906 42.4459ZM79.0599 39.6601C79.0599 38.6153 78.6448 37.6132 77.906 36.8744L76.4918 38.2886C76.8556 38.6523 77.0599 39.1457 77.0599 39.6601H79.0599ZM77.906 36.8744C77.1672 36.1355 76.1651 35.7205 75.1202 35.7205V37.7205C75.6347 37.7205 76.128 37.9248 76.4918 38.2886L77.906 36.8744ZM75.1202 35.7205H51.6028V37.7205H75.1202V35.7205ZM51.6028 35.7205C50.5579 35.7205 49.5558 36.1355 48.817 36.8744L50.2312 38.2886C50.595 37.9248 51.0883 37.7205 51.6028 37.7205V35.7205ZM48.817 36.8744C48.0782 37.6132 47.6631 38.6153 47.6631 39.6601H49.6631C49.6631 39.1457 49.8674 38.6523 50.2312 38.2886L48.817 36.8744ZM47.6631 39.6601C47.6631 40.705 48.0782 41.7071 48.817 42.4459L50.2312 41.0317C49.8674 40.6679 49.6631 40.1746 49.6631 39.6601H47.6631ZM48.817 42.4459C49.5558 43.1848 50.5579 43.5998 51.6028 43.5998V41.5998C51.0883 41.5998 50.595 41.3955 50.2312 41.0317L48.817 42.4459ZM93.7584 66.1174C93.7584 65.0725 93.3434 64.0705 92.6045 63.3316L91.1903 64.7458C91.5541 65.1096 91.7584 65.603 91.7584 66.1174H93.7584ZM92.6045 63.3316C91.8657 62.5928 90.8636 62.1777 89.8188 62.1777V64.1777C90.3332 64.1777 90.8266 64.3821 91.1903 64.7458L92.6045 63.3316ZM89.8188 62.1777H25.1457V64.1777H89.8188V62.1777ZM25.1457 62.1777C24.1009 62.1777 23.0988 62.5928 22.36 63.3316L23.7742 64.7458C24.1379 64.3821 24.6313 64.1777 25.1457 64.1777V62.1777ZM22.36 63.3316C21.6211 64.0705 21.2061 65.0725 21.2061 66.1174H23.2061C23.2061 65.603 23.4104 65.1096 23.7742 64.7458L22.36 63.3316ZM21.2061 66.1174C21.2061 67.1623 21.6211 68.1644 22.36 68.9032L23.7742 67.489C23.4104 67.1252 23.2061 66.6318 23.2061 66.1174H21.2061ZM22.36 68.9032C23.0988 69.642 24.1009 70.0571 25.1457 70.0571V68.0571C24.6313 68.0571 24.1379 67.8527 23.7742 67.489L22.36 68.9032ZM25.1457 70.0571H89.8188V68.0571H25.1457V70.0571ZM89.8188 70.0571C90.8636 70.0571 91.8657 69.642 92.6045 68.9032L91.1903 67.489C90.8266 67.8527 90.3332 68.0571 89.8188 68.0571V70.0571ZM92.6045 68.9032C93.3434 68.1643 93.7584 67.1623 93.7584 66.1174H91.7584C91.7584 66.6318 91.5541 67.1252 91.1903 67.489L92.6045 68.9032ZM83.9389 76.876H31.0246V78.876H83.9389V76.876ZM31.0246 76.876C29.9798 76.876 28.9777 77.291 28.2389 78.0299L29.6531 79.4441C30.0168 79.0803 30.5102 78.876 31.0246 78.876V76.876ZM28.2389 78.0299C27.5 78.7687 27.085 79.7708 27.085 80.8157H29.085C29.085 80.3012 29.2893 79.8079 29.6531 79.4441L28.2389 78.0299ZM27.085 80.8157C27.085 81.8605 27.5 82.8626 28.2389 83.6014L29.6531 82.1872C29.2893 81.8235 29.085 81.3301 29.085 80.8157H27.085ZM28.2389 83.6014C28.9777 84.3403 29.9798 84.7553 31.0246 84.7553V82.7553C30.5102 82.7553 30.0168 82.551 29.6531 82.1872L28.2389 83.6014ZM31.0246 84.7553H83.9389V82.7553H31.0246V84.7553ZM83.9389 84.7553C84.9838 84.7553 85.9859 84.3403 86.7247 83.6014L85.3105 82.1872C84.9467 82.551 84.4534 82.7553 83.9389 82.7553V84.7553ZM86.7247 83.6014C87.4635 82.8626 87.8786 81.8605 87.8786 80.8157H85.8786C85.8786 81.3301 85.6742 81.8235 85.3105 82.1872L86.7247 83.6014ZM87.8786 80.8157C87.8786 79.7708 87.4635 78.7687 86.7247 78.0299L85.3105 79.4441C85.6742 79.8078 85.8786 80.3012 85.8786 80.8157H87.8786ZM86.7247 78.0299C85.9859 77.291 84.9838 76.876 83.9389 76.876V78.876C84.4534 78.876 84.9467 79.0803 85.3105 79.4441L86.7247 78.0299ZM83.9389 88.6348H31.0246V90.6348H83.9389V88.6348ZM31.0246 88.6348C29.9798 88.6348 28.9777 89.0498 28.2389 89.7887L29.6531 91.2029C30.0168 90.8391 30.5102 90.6348 31.0246 90.6348V88.6348ZM28.2389 89.7887C27.5 90.5275 27.085 91.5296 27.085 92.5744H29.085C29.085 92.06 29.2893 91.5666 29.6531 91.2029L28.2389 89.7887ZM27.085 92.5744C27.085 93.6193 27.5 94.6214 28.2389 95.3602L29.6531 93.946C29.2893 93.5823 29.085 93.0889 29.085 92.5744H27.085ZM28.2389 95.3602C28.9777 96.0991 29.9798 96.5141 31.0246 96.5141V94.5141C30.5102 94.5141 30.0168 94.3098 29.6531 93.946L28.2389 95.3602ZM31.0246 96.5141H83.9389V94.5141H31.0246V96.5141ZM83.9389 96.5141C84.9838 96.5141 85.9859 96.0991 86.7247 95.3602L85.3105 93.946C84.9467 94.3098 84.4534 94.5141 83.9389 94.5141V96.5141ZM86.7247 95.3602C87.4635 94.6214 87.8786 93.6193 87.8786 92.5744H85.8786C85.8786 93.0889 85.6742 93.5823 85.3105 93.946L86.7247 95.3602ZM87.8786 92.5744C87.8786 91.5296 87.4635 90.5275 86.7247 89.7887L85.3105 91.2029C85.6742 91.5666 85.8786 92.06 85.8786 92.5744H87.8786ZM86.7247 89.7887C85.9859 89.0498 84.9838 88.6348 83.9389 88.6348V90.6348C84.4534 90.6348 84.9467 90.8391 85.3105 91.2029L86.7247 89.7887ZM83.9389 100.394H31.0246V102.394H83.9389V100.394ZM31.0246 100.394C29.9798 100.394 28.9777 100.809 28.2389 101.547L29.6531 102.962C30.0168 102.598 30.5102 102.394 31.0246 102.394V100.394ZM28.2389 101.547C27.5 102.286 27.085 103.288 27.085 104.333H29.085C29.085 103.819 29.2893 103.325 29.6531 102.962L28.2389 101.547ZM27.085 104.333C27.085 105.378 27.5 106.38 28.2389 107.119L29.6531 105.705C29.2893 105.341 29.085 104.848 29.085 104.333H27.085ZM28.2389 107.119C28.9777 107.858 29.9798 108.273 31.0246 108.273V106.273C30.5102 106.273 30.0168 106.069 29.6531 105.705L28.2389 107.119ZM31.0246 108.273H83.9389V106.273H31.0246V108.273ZM83.9389 108.273C84.9838 108.273 85.9859 107.858 86.7247 107.119L85.3105 105.705C84.9467 106.069 84.4534 106.273 83.9389 106.273V108.273ZM86.7247 107.119C87.4635 106.38 87.8786 105.378 87.8786 104.333H85.8786C85.8786 104.848 85.6742 105.341 85.3105 105.705L86.7247 107.119ZM87.8786 104.333C87.8786 103.288 87.4635 102.286 86.7247 101.547L85.3105 102.962C85.6742 103.325 85.8786 103.819 85.8786 104.333H87.8786ZM86.7247 101.547C85.9859 100.809 84.9838 100.394 83.9389 100.394V102.394C84.4534 102.394 84.9467 102.598 85.3105 102.962L86.7247 101.547ZM87.8786 116.092C87.8786 115.047 87.4635 114.045 86.7247 113.306L85.3105 114.72C85.6742 115.084 85.8786 115.578 85.8786 116.092H87.8786ZM86.7247 113.306C85.9859 112.567 84.9838 112.152 83.9389 112.152V114.152C84.4534 114.152 84.9467 114.357 85.3105 114.72L86.7247 113.306ZM83.9389 112.152H31.0246V114.152H83.9389V112.152ZM31.0246 112.152C29.9798 112.152 28.9777 112.567 28.2389 113.306L29.6531 114.72C30.0168 114.357 30.5102 114.152 31.0246 114.152V112.152ZM28.2389 113.306C27.5 114.045 27.085 115.047 27.085 116.092H29.085C29.085 115.578 29.2893 115.084 29.6531 114.72L28.2389 113.306ZM27.085 116.092C27.085 117.137 27.5 118.139 28.2389 118.878L29.6531 117.464C29.2893 117.1 29.085 116.606 29.085 116.092H27.085ZM28.2389 118.878C28.9777 119.617 29.9798 120.032 31.0246 120.032V118.032C30.5102 118.032 30.0168 117.827 29.6531 117.464L28.2389 118.878ZM31.0246 120.032H83.9389V118.032H31.0246V120.032ZM83.9389 120.032C84.9838 120.032 85.9859 119.617 86.7247 118.878L85.3105 117.464C84.9467 117.827 84.4534 118.032 83.9389 118.032V120.032ZM86.7247 118.878C87.4635 118.139 87.8786 117.137 87.8786 116.092H85.8786C85.8786 116.606 85.6742 117.1 85.3105 117.464L86.7247 118.878Z" fill="#E2E2E2" mask="url(#path-6-outside-2_1151_2)"/>
<path d="M133.913 43.0999C134.826 43.0999 135.7 42.7376 136.346 42.0925C136.991 41.4474 137.353 40.5725 137.353 39.6603V16.1428C137.353 15.2305 136.991 14.3557 136.346 13.7106C135.7 13.0655 134.826 12.7031 133.913 12.7031C133.001 12.7031 132.126 13.0655 131.481 13.7106C130.836 14.3557 130.474 15.2305 130.474 16.1428V39.6603C130.474 40.5725 130.836 41.4474 131.481 42.0925C132.126 42.7376 133.001 43.0999 133.913 43.0999Z" fill="#E2E2E2" stroke="#E2E2E2"/>
<path d="M145.672 43.0998C146.584 43.0998 147.459 42.7374 148.104 42.0923C148.749 41.4473 149.112 40.5724 149.112 39.6601V30.8411C149.112 29.9288 148.749 29.0539 148.104 28.4088C147.459 27.7638 146.584 27.4014 145.672 27.4014C144.76 27.4014 143.885 27.7638 143.24 28.4088C142.595 29.0539 142.232 29.9288 142.232 30.8411V39.6601C142.232 40.5724 142.595 41.4473 143.24 42.0923C143.885 42.7374 144.76 43.0998 145.672 43.0998Z" fill="#E2E2E2" stroke="#E2E2E2"/>
<path d="M157.431 21.5222C156.519 21.5222 155.644 21.8846 154.999 22.5297C154.354 23.1747 153.991 24.0496 153.991 24.9619V39.6603C153.991 40.5726 154.354 41.4475 154.999 42.0925C155.644 42.7376 156.519 43.1 157.431 43.1C158.343 43.1 159.218 42.7376 159.863 42.0925C160.508 41.4475 160.871 40.5726 160.871 39.6603V24.9619C160.871 24.0496 160.508 23.1747 159.863 22.5297C159.218 21.8846 158.343 21.5222 157.431 21.5222Z" fill="#E2E2E2" stroke="#E2E2E2"/>
</svg>
