<svg width="145" height="187" viewBox="0 0 145 187" fill="none" xmlns="http://www.w3.org/2000/svg">
<path d="M43.217 182.651L33.3711 152.056C33.1245 151.809 33.3715 151.562 33.125 151.316C33.1254 150.822 32.8788 150.575 33.1258 150.328C33.3728 150.081 33.1262 149.835 33.3732 149.588C33.3736 149.094 33.6207 148.847 33.8677 148.6C33.8677 148.6 33.8677 148.6 34.1147 148.353C34.3617 148.106 34.3617 148.106 34.6087 147.859C34.8557 147.612 35.1027 147.365 35.3498 147.118C35.5968 146.871 35.8438 146.624 36.3374 146.624L36.5844 146.377L64.7307 133.519C67.4466 132.283 70.4074 133.267 71.6391 135.981C72.8708 138.695 71.881 141.657 69.1651 142.894L50.6476 151.547C73.0988 160.66 98.7703 155.702 116.061 138.411C135.575 118.897 139.303 88.5373 125.009 64.363C123.531 61.8963 124.274 58.6872 126.743 57.2043C129.212 55.7214 132.42 56.459 133.899 58.9258C150.657 87.0468 146.431 122.837 123.706 145.562C103.698 165.57 73.8301 171.272 47.9246 161.175L53.8314 180.42C54.3233 182.394 53.828 184.369 52.5929 185.604C52.0989 186.098 51.1113 186.593 50.3707 186.84C46.9154 186.843 43.9551 185.365 43.217 182.651ZM107.019 33.5282C107.266 33.7748 107.019 34.0218 107.019 33.5282C107.265 34.2684 107.265 34.762 107.265 35.2556L107.264 35.7492C107.264 36.2428 107.016 36.9834 106.769 37.2305C106.522 37.4775 106.275 38.2181 106.028 38.4651C105.781 38.7121 105.287 39.2061 104.793 39.2066L78.3726 54.284C75.9033 55.767 72.9425 54.7823 71.4638 52.3155C69.9851 49.8488 70.7283 46.6397 73.4441 45.4034L90.9757 35.2696C69.0169 27.6375 45.0728 32.8408 28.5229 49.3907C9.74996 68.1636 5.52963 97.043 18.3426 121.219C19.8213 123.685 18.5846 126.895 16.3623 128.131C13.893 129.614 10.6857 128.382 9.45354 126.162C-5.33047 98.0395 -0.859333 64.4707 21.3718 42.2395C40.6388 22.9726 68.5326 16.7787 93.9458 25.395L87.298 6.89055C86.5599 4.17637 87.5496 1.21391 90.5121 0.224171C93.2275 -0.518555 95.9413 0.713138 97.173 3.4269L107.019 33.5282Z" fill="#E2E2E2"/>
</svg>
