<svg width="116" height="186" viewBox="0 0 116 186" fill="none" xmlns="http://www.w3.org/2000/svg">
<path d="M11.3027 92.5856L11.3079 92.5929L11.3134 92.6C19.0414 102.601 23.1781 114.874 23.1781 127.47C23.1781 130.629 24.4294 133.661 26.6525 135.894C28.8756 138.128 31.8947 139.386 35.0404 139.386H80.4895C83.6352 139.386 86.6543 138.128 88.8774 135.894C91.1005 133.661 92.3518 130.629 92.3518 127.47C92.3518 114.875 96.5319 102.632 104.261 92.6297L104.266 92.6226L104.272 92.6153C121.17 69.0453 117.939 36.2762 96.4884 16.5274C85.5461 6.4537 71.6533 1.41211 57.7649 1.41211C43.8766 1.41211 29.9838 6.4537 19.0414 16.5274L19.3801 16.8953L19.0414 16.5274C-2.41002 36.2767 -5.59513 69.0161 11.3027 92.5856ZM96.433 88.7875L96.433 88.7874L96.4266 88.7962C88.2284 100.025 83.777 113.559 83.777 127.47C83.777 128.349 83.4308 129.187 82.8129 129.808C82.1951 130.429 81.362 130.776 80.4895 130.776H35.0404C34.1679 130.776 33.3348 130.429 32.717 129.808C32.0991 129.187 31.7529 128.349 31.7529 127.47C31.7529 113.558 27.271 100.047 19.0738 88.8185L19.0739 88.8184L19.0673 88.8098C3.66247 68.6391 6.18038 40.0511 24.8378 22.8744L24.4992 22.5065L24.8378 22.8744C34.1662 14.2862 45.9656 9.99285 57.7649 9.99285C69.5643 9.99285 81.3637 14.2862 90.6921 22.8744L91.0307 22.5065L90.6921 22.8744C109.349 40.0508 111.839 68.6164 96.433 88.7875ZM80.4226 145.945H80.4223C80.3059 145.947 80.2078 145.977 80.1683 145.99L80.1634 145.991C80.1557 145.993 80.1494 145.995 80.1444 145.997L50.1901 145.997C47.8135 145.997 45.9027 147.92 45.9027 150.302C45.9027 152.684 47.8135 154.607 50.1901 154.607H76.2021V161.218H50.1901C47.8135 161.218 45.9027 163.141 45.9027 165.523C45.9027 167.905 47.8135 169.828 50.1901 169.828H76.1593C75.7359 173.437 72.7987 176.439 69.1791 176.439H46.4027C42.4527 176.439 39.3278 173.303 39.3278 169.328V150.306C39.3682 147.881 37.45 145.959 35.0325 145.997H35.0322C32.6865 146.035 30.7221 147.915 30.7529 150.305V170.161C30.7529 178.41 38.1194 185.049 46.4027 185.049H69.253H69.2555C77.8202 185.006 84.8288 177.937 84.8288 169.328V169.327L84.777 150.306C84.8169 147.88 82.8381 145.907 80.4226 145.945Z" fill="#E2E2E2" stroke="#E2E2E2"/>
</svg>
