<svg width="29" height="22" viewBox="0 0 29 22" fill="none" xmlns="http://www.w3.org/2000/svg">
<path d="M0.428711 1.5C0.428711 0.750459 1.03633 0.142853 1.78585 0.142853H27.5716C28.3211 0.142853 28.9287 0.750459 28.9287 1.5C28.9287 2.24953 28.3211 2.85714 27.5716 2.85714H1.78585C1.03633 2.85714 0.428711 2.24953 0.428711 1.5Z" fill="#C09553"/>
<path d="M0.428711 10.9997C0.428711 10.2502 1.03633 9.64246 1.78585 9.64246L16.7144 9.64286C17.464 9.64286 18.0716 10.2505 18.0716 11C18.0716 11.7496 17.464 12.3571 16.7144 12.3571L1.78585 12.3569C1.03633 12.3569 0.428711 11.7491 0.428711 10.9997Z" fill="#C09553"/>
<path d="M1.78585 19.1426C1.03633 19.1426 0.428711 19.7502 0.428711 20.4997C0.428711 21.2491 1.03633 21.8567 1.78585 21.8567H24.8573C25.6068 21.8567 26.2144 21.2491 26.2144 20.4997C26.2144 19.7502 25.6068 19.1426 24.8573 19.1426H1.78585Z" fill="#C09553"/>
</svg>
