<svg width="23" height="23" viewBox="0 0 23 23" fill="none" xmlns="http://www.w3.org/2000/svg">
<path d="M1.55012 1.36449C2.08012 0.834489 2.93942 0.834498 3.46941 1.36449L21.7027 19.5977C22.2327 20.1278 22.2327 20.987 21.7027 21.517C21.1727 22.047 20.3134 22.047 19.7834 21.517L1.55012 3.28378C1.02013 2.75379 1.02012 1.89449 1.55012 1.36449Z" fill="#C09553"/>
<path d="M21.112 1.36455C20.582 0.83455 19.7227 0.834559 19.1927 1.36455L0.959446 19.5978C0.429434 20.1278 0.429445 20.9871 0.959447 21.5171C1.48945 22.0471 2.34872 22.0471 2.87874 21.5171L21.112 3.28384C21.642 2.75385 21.642 1.89455 21.112 1.36455Z" fill="#C09553"/>
</svg>
