<svg width="65" height="44" viewBox="0 0 65 44" fill="none" xmlns="http://www.w3.org/2000/svg">
<g clip-path="url(#clip0_1032_244)">
<path fill-rule="evenodd" clip-rule="evenodd" d="M41.9073 15.2766C37.0359 16.2263 36.673 5.23636 40.9241 4.6417C43.8034 4.2453 44.6835 6.98603 44.7835 9.52425C44.8843 12.0876 44.1192 14.8474 41.9073 15.2766ZM34.2712 20.6172L32.3162 20.6173L32.3129 23.0001L38.1247 22.9998L38.1244 15.5732C38.4043 16.0554 38.8821 16.5581 39.3058 16.8808C39.78 17.2419 40.3549 17.5313 41.2209 17.7056C45.7586 18.6182 48.7366 15.2992 48.7373 10.5745C48.738 5.99084 47.5534 2.08273 42.5013 2.08273C40.5266 2.08273 38.6354 3.28443 37.8892 4.74695L37.8908 2.38504C36.5176 2.38504 33.6852 2.39753 32.3125 2.3871C32.3125 3.1645 32.3131 3.40423 32.313 4.77072L34.2712 4.76878V20.6173V20.6172Z" fill="#FEFEFE"/>
<path fill-rule="evenodd" clip-rule="evenodd" d="M59.0506 10.4822C58.7906 16.2248 54.953 15.8087 54.0406 14.7056C53.0555 13.6416 53.4911 11.8912 54.41 11.1869C55.4584 10.3833 57.5424 10.4041 59.0508 10.4821L59.0506 10.4822ZM54.1346 6.97635C54.1266 6.07211 54.3515 5.49939 54.7647 5.0095C55.8579 3.71371 58.3327 4.00486 58.867 5.86827C59.0546 6.52283 59.0825 7.55052 59.04 8.41777C56.594 8.26523 54.1262 8.06769 52.1212 9.05948C48.8389 10.7472 48.658 17.311 54.0221 17.7259C57.5575 18.0647 58.2952 16.399 59.3265 15.3502V17.4691L64.634 17.4693C64.634 16.9654 64.634 16.0206 64.634 15.0861L62.6714 15.0844C62.6721 12.6197 62.6724 10.0341 62.6724 7.56943C62.6724 4.25781 60.9157 2.33243 57.2736 2.03753C53.7507 1.7522 50.4927 3.06485 50.3836 6.97659C50.723 6.97635 53.3555 6.97671 54.1348 6.97647L54.1346 6.97635Z" fill="#FEFEFE"/>
<path fill-rule="evenodd" clip-rule="evenodd" d="M9.59479 15.2766C4.72344 16.2263 4.36053 5.23636 8.61164 4.6417C11.4909 4.2453 12.3711 6.98603 12.471 9.52425C12.5718 12.0876 11.8067 14.8474 9.59479 15.2766ZM1.95865 20.6172L0.00370069 20.6173L0.000370069 23.0001L5.81219 22.9998L5.81194 15.5732C6.09184 16.0554 6.5696 16.5581 6.99333 16.8808C7.46751 17.2419 8.04235 17.5313 8.90844 17.7056C13.4461 18.6182 16.4241 15.2992 16.4248 10.5745C16.4255 5.99084 15.2409 2.08273 10.1888 2.08273C8.21406 2.08273 6.32288 3.28443 5.5767 4.74695L5.5783 2.38504C4.2051 2.38504 1.37271 2.39753 0 2.3871C0 3.1645 0.000616782 3.40423 0.000493426 4.77072L1.95865 4.76878V20.6173V20.6172Z" fill="#FEFEFE"/>
<path fill-rule="evenodd" clip-rule="evenodd" d="M26.7752 10.4822C26.5152 16.2248 22.6776 15.8087 21.7652 14.7056C20.7801 13.6416 21.2157 11.8912 22.1346 11.1869C23.183 10.3833 25.267 10.4041 26.7754 10.4821L26.7752 10.4822ZM21.8592 6.97635C21.8513 6.07211 22.0761 5.49939 22.4893 5.0095C23.5825 3.71371 26.0573 4.00486 26.5916 5.86827C26.7792 6.52283 26.8071 7.55052 26.7646 8.41777C24.3186 8.26523 21.8509 8.06769 19.8458 9.05948C16.5635 10.7472 16.3826 17.311 21.7467 17.7259C25.2821 18.0647 26.0198 16.399 27.0511 15.3502V17.4691L32.3586 17.4693C32.3586 16.9654 32.3586 16.0206 32.3586 15.0861L30.396 15.0844C30.3966 12.6197 30.397 10.0341 30.397 7.56943C30.397 4.25781 28.6403 2.33243 24.998 2.03753C21.4752 1.7522 18.2171 3.06485 18.1082 6.97659C18.4474 6.97635 21.0801 6.97671 21.8592 6.97647V6.97635Z" fill="#FEFEFE"/>
<path fill-rule="evenodd" clip-rule="evenodd" d="M32.2898 35.9883C32.0611 41.04 28.6852 40.674 27.8826 39.7036C27.016 38.7676 27.3991 37.2278 28.2075 36.6082C29.1297 35.9013 30.963 35.9196 32.2899 35.9882L32.2898 35.9883ZM27.9653 32.9043C27.9582 32.1088 28.156 31.605 28.5196 31.1741C29.4812 30.0342 31.6584 30.2903 32.1282 31.9295C32.2933 32.5053 32.3178 33.4094 32.2805 34.1723C30.1287 34.0381 27.9579 33.8643 26.1941 34.7368C23.3067 36.2214 23.1475 41.9955 27.8663 42.3604C30.9763 42.6585 31.6253 41.1933 32.5324 40.2707V42.1346L42.7179 42.1348L42.7177 40.0376L41.1456 40.0377C41.1459 38.4439 41.1454 36.0482 41.1448 34.412C41.1428 33.4493 41.3449 32.4693 41.7425 31.8298C42.0834 31.2816 42.6165 30.919 43.4397 30.8662C45.4298 30.7385 45.6084 32.5317 45.6061 34.3125C45.6036 36.1705 45.6057 38.1662 45.6059 40.0377L44.0326 40.0381L44.0325 42.1349L50.6152 42.1346V40.0376H49.0425C49.0424 38.7169 49.0424 37.0825 49.0424 35.5269C49.0424 34.6332 49.0424 34.0342 49.0424 32.6735C49.0424 31.4588 48.7334 30.4986 48.2595 29.9204C47.9476 29.5399 47.497 29.1936 46.9461 28.9371C46.2133 28.5957 45.3021 28.4528 44.3029 28.5571C42.7566 28.7187 41.586 29.4696 40.9255 30.8649V28.8673L36.0222 28.8672V30.9589H37.7486L37.7491 40.0383L35.4748 40.0368C35.4755 37.8686 35.4757 35.5941 35.4757 33.426C35.4757 30.5128 33.9303 28.8191 30.7264 28.5597C27.6275 28.3087 24.7614 29.4634 24.6654 32.9045C24.964 32.9043 27.2798 32.9046 27.9653 32.9044V32.9043Z" fill="#CF964E"/>
<path fill-rule="evenodd" clip-rule="evenodd" d="M19.4495 31.7873L19.4549 28.8782L14.533 28.8673V30.959H16.2593L16.2595 40.038H14.5107L14.5224 42.136L21.7372 42.1335L21.7314 40.0402L19.6295 40.0388C19.6306 39.3531 19.628 38.4608 19.6302 37.4926C19.6336 36.0946 19.6496 34.5682 19.8493 33.8339C20.0756 33.0023 20.6705 32.382 21.2708 32.0364C21.9744 31.6045 23.0124 31.531 23.8263 31.8915L23.8267 28.6364C21.4907 28.3177 19.7584 29.4038 19.4496 31.7873H19.4495Z" fill="#CF964E"/>
<path fill-rule="evenodd" clip-rule="evenodd" d="M8.44039 30.7942C4.15514 29.9588 3.83589 39.6265 7.57552 40.1496C10.1084 40.4983 10.8826 38.0873 10.9705 35.8545C11.0592 33.5995 10.3862 31.1718 8.44039 30.7942V30.7942ZM1.723 26.0962L0.003252 26.0961L0.000324538 24L5.11289 24.0002L5.11267 30.5333C5.35889 30.1092 5.77917 29.6669 6.15192 29.383C6.56905 29.0654 7.07473 28.8108 7.83661 28.6575C11.8283 27.8547 14.448 30.7744 14.4486 34.9306C14.4493 38.9627 13.4072 42.4006 8.96289 42.4006C7.22578 42.4006 5.56214 41.3434 4.90574 40.057L4.90715 42.1347C3.69916 42.1347 1.20755 42.1237 0 42.1329C0 41.449 0.000539024 41.2381 0.000430509 40.0361L1.723 40.0378V26.0961V26.0962Z" fill="#CF964E"/>
<path fill-rule="evenodd" clip-rule="evenodd" d="M56.7026 30.7942C60.9878 29.9588 61.3071 39.6265 57.5674 40.1496C55.0346 40.4983 54.2604 38.0873 54.1725 35.8545C54.0838 33.5995 54.7568 31.1718 56.7026 30.7942V30.7942ZM63.42 26.0962L65.1397 26.0961L65.1426 24L60.0301 24.0002L60.0303 30.5333C59.7841 30.1092 59.3639 29.6669 58.9911 29.383C58.5739 29.0654 58.0682 28.8108 57.3064 28.6575C53.3146 27.8547 50.6951 30.7744 50.6943 34.9306C50.6937 38.9627 51.7358 42.4006 56.1801 42.4006C57.9172 42.4006 59.5808 41.3434 60.2373 40.057L60.2359 42.1347C61.4439 42.1347 63.9356 42.1237 65.1431 42.1329C65.1431 41.449 65.1425 41.2381 65.1426 40.0361L63.4201 40.0378V26.0961L63.42 26.0962Z" fill="#CF964E"/>
</g>
<defs>
<clipPath id="clip0_1032_244">
<rect width="65" height="44" fill="white"/>
</clipPath>
</defs>
</svg>
