<svg width="27" height="27" viewBox="0 0 27 27" fill="none" xmlns="http://www.w3.org/2000/svg">
<path d="M21.7082 7.59984C21.7082 7.79297 21.6701 7.98422 21.5962 8.16264C21.5224 8.34108 21.4139 8.50321 21.2775 8.63978C21.1409 8.77635 20.9787 8.88467 20.8002 8.95859C20.6219 9.03251 20.4306 9.07054 20.2375 9.07054C20.0444 9.07054 19.8531 9.03251 19.6746 8.95859C19.4963 8.88467 19.3341 8.77635 19.1975 8.63978C19.0609 8.50321 18.9526 8.34108 18.8788 8.16264C18.8048 7.98422 18.7668 7.79297 18.7668 7.59984C18.7668 7.20978 18.9216 6.83571 19.1975 6.55989C19.4734 6.28408 19.8474 6.12913 20.2375 6.12913C20.6276 6.12913 21.0016 6.28408 21.2775 6.55989C21.5532 6.83571 21.7082 7.20978 21.7082 7.59984ZM26.3776 14.2387V14.2577L26.2934 19.5879C26.272 21.5101 25.4988 23.3477 24.1396 24.7071C22.7806 26.0666 20.9432 26.84 19.0209 26.862L13.6717 26.9446H13.6526L8.32253 26.8604C6.40024 26.8389 4.56272 26.0658 3.20324 24.7067C1.84374 23.3475 1.07029 21.5101 1.04841 19.5879L0.96582 14.2387V14.2196L1.05 8.88948C1.07145 6.9672 1.8445 5.12967 3.2037 3.77019C4.56289 2.41069 6.40024 1.63724 8.32253 1.61537L13.6717 1.53278H13.6908L19.0209 1.61696C20.9432 1.63841 22.7807 2.41145 24.1401 3.77065C25.4996 5.12985 26.2731 6.9672 26.295 8.88948L26.3776 14.2387ZM24.0111 14.2387L23.9286 8.92601C23.9136 7.61934 23.3879 6.37038 22.464 5.44636C21.54 4.52236 20.291 3.99669 18.9844 3.98184L13.6717 3.89925L8.35906 3.98184C7.05239 3.99669 5.80343 4.52236 4.87941 5.44636C3.95541 6.37038 3.42973 7.61934 3.41489 8.92601L3.3323 14.2387L3.41489 19.5513C3.42973 20.858 3.95541 22.107 4.87941 23.031C5.80343 23.955 7.05239 24.4806 8.35906 24.4955L13.6717 24.5781L18.9844 24.4955C20.291 24.4806 21.54 23.955 22.464 23.031C23.3879 22.107 23.9136 20.858 23.9286 19.5513L24.0111 14.2387ZM20.1962 14.2387C20.1962 15.9691 19.5088 17.6286 18.2852 18.8522C17.0617 20.0758 15.4021 20.7631 13.6717 20.7631C11.9413 20.7631 10.2818 20.0758 9.0582 18.8522C7.83463 17.6286 7.14724 15.9691 7.14724 14.2387C7.14724 12.5083 7.83463 10.8487 9.0582 9.62515C10.2818 8.40158 11.9413 7.71419 13.6717 7.71419C15.4021 7.71419 17.0617 8.40158 18.2852 9.62515C19.5088 10.8487 20.1962 12.5083 20.1962 14.2387ZM17.8297 14.2387C17.8297 13.1359 17.3917 12.0783 16.6119 11.2985C15.8321 10.5187 14.7745 10.0807 13.6717 10.0807C12.5689 10.0807 11.5113 10.5187 10.7316 11.2985C9.95177 12.0783 9.51371 13.1359 9.51371 14.2387C9.51371 15.3414 9.95177 16.399 10.7316 17.1788C11.5113 17.9586 12.5689 18.3967 13.6717 18.3967C14.7745 18.3967 15.8321 17.9586 16.6119 17.1788C17.3917 16.399 17.8297 15.3414 17.8297 14.2387Z" fill="#C09553"/>
</svg>
