<svg width="122" height="23" viewBox="0 0 122 23" fill="none" xmlns="http://www.w3.org/2000/svg">
<g clip-path="url(#clip0_1032_244)">
<path fill-rule="evenodd" clip-rule="evenodd" d="M89.1472 11.9883C88.9185 17.04 85.5426 16.674 84.74 15.7036C83.8734 14.7676 84.2566 13.2278 85.0649 12.6082C85.9872 11.9013 87.8204 11.9196 89.1473 11.9882L89.1472 11.9883ZM84.8227 8.90427C84.8156 8.10882 85.0135 7.60502 85.377 7.17407C86.3386 6.03418 88.5158 6.2903 88.9856 7.92951C89.1507 8.50532 89.1752 9.40936 89.1379 10.1723C86.9862 10.0381 84.8153 9.86431 83.0515 10.7368C80.1642 12.2214 80.005 17.9955 84.7237 18.3604C87.8338 18.6585 88.4827 17.1933 89.3899 16.2707V18.1346L99.5753 18.1348L99.5752 16.0376L98.003 16.0377C98.0033 14.4439 98.0028 12.0482 98.0022 10.412C98.0002 9.44925 98.2024 8.46927 98.5999 7.82977C98.9408 7.28159 99.4739 6.91902 100.297 6.86621C102.287 6.73853 102.466 8.53167 102.464 10.3125C102.461 12.1705 102.463 14.1662 102.463 16.0377L100.89 16.0381L100.89 18.1349L107.473 18.1346V16.0376H105.9C105.9 14.7169 105.9 13.0825 105.9 11.5269C105.9 10.6332 105.9 10.0342 105.9 8.67354C105.9 7.45877 105.591 6.49863 105.117 5.92036C104.805 5.53987 104.354 5.19361 103.804 4.93707C103.071 4.59572 102.16 4.45278 101.16 4.55711C99.614 4.71871 98.4435 5.46957 97.7829 6.86493V4.86731L92.8796 4.8672V6.95891H94.6061L94.6065 16.0383L92.3322 16.0368C92.3329 13.8686 92.3331 11.5941 92.3331 9.426C92.3331 6.51281 90.7878 4.81909 87.5839 4.55967C84.4849 4.30867 81.6188 5.46338 81.5229 8.90448C81.8214 8.90427 84.1372 8.90459 84.8227 8.90438V8.90427Z" fill="#CF964E"/>
<path fill-rule="evenodd" clip-rule="evenodd" d="M76.3069 7.78732L76.3123 4.87819L71.3904 4.86731V6.95902H73.1168L73.1169 16.038H71.3682L71.3798 18.136L78.5946 18.1335L78.5888 16.0402L76.4869 16.0388C76.488 15.3531 76.4854 14.4608 76.4877 13.4926C76.491 12.0946 76.507 10.5682 76.7068 9.83391C76.933 9.0023 77.5279 8.38201 78.1282 8.0364C78.8318 7.60449 79.8699 7.53099 80.6837 7.89154L80.6842 4.63637C78.3482 4.31774 76.6158 5.40376 76.307 7.78732H76.3069Z" fill="#CF964E"/>
<path fill-rule="evenodd" clip-rule="evenodd" d="M65.2978 6.7942C61.0126 5.95875 60.6933 15.6265 64.4329 16.1496C66.9658 16.4983 67.74 14.0873 67.8279 11.8545C67.9166 9.59954 67.2436 7.17181 65.2978 6.7942ZM58.5804 2.09619L56.8607 2.09609L56.8577 0L61.9703 0.000213342L61.9701 6.53328C62.2163 6.10916 62.6366 5.6669 63.0093 5.38305C63.4265 5.06538 63.9322 4.81076 64.694 4.65747C68.6857 3.85467 71.3054 6.77436 71.3061 10.9306C71.3067 14.9627 70.2646 18.4006 65.8203 18.4006C64.0832 18.4006 62.4196 17.3434 61.7632 16.057L61.7646 18.1347C60.5566 18.1347 58.065 18.1237 56.8574 18.1329C56.8574 17.449 56.858 17.2381 56.8579 16.0361L58.5804 16.0378V2.09609V2.09619Z" fill="#CF964E"/>
<path fill-rule="evenodd" clip-rule="evenodd" d="M113.56 6.7942C117.845 5.95875 118.165 15.6265 114.425 16.1496C111.892 16.4983 111.118 14.0873 111.03 11.8545C110.941 9.59954 111.614 7.17181 113.56 6.7942ZM120.277 2.09619L121.997 2.09609L122 0L116.888 0.000213342L116.888 6.53328C116.642 6.10916 116.221 5.6669 115.848 5.38305C115.431 5.06538 114.926 4.81076 114.164 4.65747C110.172 3.85467 107.553 6.77436 107.552 10.9306C107.551 14.9627 108.593 18.4006 113.038 18.4006C114.775 18.4006 116.438 17.3434 117.095 16.057L117.093 18.1347C118.301 18.1347 120.793 18.1237 122.001 18.1329C122.001 17.449 122 17.2381 122 16.0361L120.278 16.0378V2.09609L120.277 2.09619Z" fill="#CF964E"/>
<path fill-rule="evenodd" clip-rule="evenodd" d="M36.8652 16.2059C32.5799 17.0414 32.2607 7.37365 36.0003 6.85054C38.5332 6.50183 39.3074 8.91281 39.3953 11.1456C39.484 13.4006 38.811 15.8283 36.8652 16.2059ZM30.1478 20.9039L28.4281 20.904L28.4251 23.0001L33.5377 22.9999L33.5375 16.4668C33.7837 16.8909 34.204 17.3332 34.5767 17.6171C34.9939 17.9347 35.4995 18.1893 36.2614 18.3426C40.2531 19.1454 42.8728 16.2257 42.8734 12.0695C42.8741 8.03736 41.832 4.59946 37.3877 4.59946C35.6506 4.59946 33.9869 5.65657 33.3305 6.94313L33.332 4.86539C32.124 4.86539 29.6324 4.87637 28.4248 4.8672C28.4248 5.55107 28.4253 5.76196 28.4252 6.96403L30.1478 6.96233V20.904V20.9039Z" fill="#FEFEFE"/>
<path fill-rule="evenodd" clip-rule="evenodd" d="M51.946 11.9883C51.7173 17.04 48.3414 16.674 47.5388 15.7036C46.6722 14.7675 47.0554 13.2277 47.8637 12.6082C48.786 11.9013 50.6192 11.9196 51.9462 11.9882L51.946 11.9883ZM47.6215 8.90426C47.6145 8.10881 47.8123 7.605 48.1758 7.17405C49.1375 6.03417 51.3145 6.29028 51.7845 7.9295C51.9495 8.50531 51.974 9.40934 51.9367 10.1723C49.785 10.0381 47.6141 9.8643 45.8503 10.7368C42.963 12.2214 42.8038 17.9955 47.5226 18.3604C50.6326 18.6585 51.2815 17.1932 52.1887 16.2706V18.1346L56.8576 18.1347C56.8576 17.6915 56.8576 16.8603 56.8576 16.0383L55.1312 16.0368C55.1318 13.8686 55.132 11.5941 55.132 9.42599C55.132 6.5128 53.5867 4.81908 50.3828 4.55965C47.2838 4.30866 44.4177 5.46337 44.3218 8.90447C44.6203 8.90426 46.9361 8.90458 47.6216 8.90436L47.6215 8.90426Z" fill="#FEFEFE"/>
<path fill-rule="evenodd" clip-rule="evenodd" d="M8.44039 16.2059C4.15514 17.0414 3.83589 7.37365 7.57552 6.85054C10.1084 6.50183 10.8826 8.91281 10.9705 11.1456C11.0592 13.4006 10.3862 15.8283 8.44039 16.2059ZM1.723 20.9039L0.00325544 20.904L0.000325544 23.0001L5.11289 22.9999L5.11267 16.4668C5.35889 16.8909 5.77917 17.3332 6.15192 17.6171C6.56905 17.9347 7.07473 18.1893 7.83661 18.3426C11.8283 19.1454 14.448 16.2257 14.4486 12.0695C14.4493 8.03736 13.4072 4.59946 8.96289 4.59946C7.22578 4.59946 5.56214 5.65657 4.90574 6.94313L4.90715 4.86539C3.69916 4.86539 1.20755 4.87637 0 4.8672C0 5.55107 0.000542574 5.76196 0.000434059 6.96403L1.723 6.96233V20.904V20.9039Z" fill="#FEFEFE"/>
<path fill-rule="evenodd" clip-rule="evenodd" d="M23.5535 11.9883C23.3247 17.04 19.9488 16.674 19.1463 15.7036C18.2797 14.7675 18.6628 13.2277 19.4711 12.6082C20.3934 11.9013 22.2267 11.9196 23.5536 11.9882L23.5535 11.9883ZM19.2289 8.90426C19.222 8.10881 19.4197 7.605 19.7832 7.17405C20.7449 6.03417 22.9219 6.29028 23.3919 7.9295C23.5569 8.50531 23.5815 9.40934 23.5441 10.1723C21.3924 10.0381 19.2216 9.8643 17.4578 10.7368C14.5704 12.2214 14.4112 17.9955 19.13 18.3604C22.24 18.6585 22.8889 17.1932 23.7961 16.2706V18.1346L28.4651 18.1347C28.4651 17.6915 28.4651 16.8603 28.4651 16.0383L26.7386 16.0368C26.7391 13.8686 26.7395 11.5941 26.7395 9.42599C26.7395 6.5128 25.1941 4.81908 21.9901 4.55965C18.8911 4.30866 16.025 5.46337 15.9292 8.90447C16.2276 8.90426 18.5436 8.90458 19.2289 8.90436V8.90426Z" fill="#FEFEFE"/>
</g>
<defs>
<clipPath id="clip0_1032_244">
<rect width="122" height="23" fill="white"/>
</clipPath>
</defs>
</svg>
